<?xml version="1.0" encoding="UTF-8"?>
<svg xmlns="http://www.w3.org/2000/svg" viewBox="0 0 429.46 394.88">
  <defs>
    <style>
      .cls-1 {
        isolation: isolate;
      }

      .cls-2 {
        fill: #043340;
      }

      .cls-2, .cls-3, .cls-4, .cls-5, .cls-6, .cls-7, .cls-8, .cls-9, .cls-10 {
        stroke-width: 0px;
      }

      .cls-3 {
        fill: #a3b6bf;
        mix-blend-mode: multiply;
        opacity: .46;
      }

      .cls-4 {
        fill: #03566f;
      }

      .cls-5 {
        fill: #0c0c0c;
      }

      .cls-6 {
        fill: #00b0da;
      }

      .cls-7 {
        fill: #a2bfdc;
      }

      .cls-8 {
        fill: #4890c0;
      }

      .cls-9 {
        fill: #0084a4;
      }

      .cls-10 {
        fill: #fff;
        opacity: .57;
      }
    </style>
  </defs>
  <g class="cls-1">
    <g id="Camada_2" data-name="Camada 2">
      <g id="Layer_1" data-name="Layer 1">
        <g>
          <path class="cls-7" d="m55.37,226.57c-5-18.16-13.07-35.65-21.34-48.13l-5.47-22.06-16.27,3.84c-11.5,3.35-15.99,42.48-8.87,78.61,7.56,35.89,29.26,69.71,43.27,67.15l17.92-4.23-5.26-21.23c2.04-15.27.92-35.23-3.98-53.95Z"/>
          <path class="cls-2" d="m71.64,222.73c9.29,35.48,5,75.44-8.68,79.41-14.01,2.56-35.71-31.26-43.27-67.15-7.12-36.13-2.63-75.26,8.87-78.61,11.79-2.15,33.29,30.85,43.08,66.35Z"/>
          <path class="cls-7" d="m29.56,166.16c0-31.58,10.78-59.63,26.94-83.95C118.68-11.31,249.55-27.17,335.07,45.62c36.67,31.21,66.57,71.65,66.57,120.54,0,126.32-83.29,228.72-186.04,228.72S29.56,292.48,29.56,166.16Z"/>
          <path class="cls-8" d="m396.4,131.11c-1.33-4.4-2.9-8.71-4.67-12.93-44.62-23.68-89.93-39.03-135.26-45.79-49.52-7.38-99.14-4.57-147.49,8.34-24.91,6.66-46.79,15.24-65.27,24.03-1.99,4.23-3.81,8.55-5.43,12.96,20.01-10.26,44.77-20.67,73.45-28.29,23.54-6.26,51.33-11,82.57-11.66-16.97,103.51-10.68,245.28-6.01,314.69,3.05.55,6.12,1.01,9.22,1.38-4.69-68.58-11.29-212.36,6.03-316.14,55.51.26,121.22,13.6,192.85,53.43Z"/>
          <path class="cls-3" d="m361.64,71.53c8.09,16.8,12.87,35,12.87,54.55,0,126.32-83.29,228.72-186.04,228.72-49.86,0-95.14-24.12-128.55-63.38,33.23,62.31,90.55,103.46,155.68,103.46,102.75,0,186.04-102.4,186.04-228.72,0-36.31-16.5-67.96-40-94.63Z"/>
          <g>
            <path class="cls-5" d="m281.97,253.23c-35.69,0-64.62-29.24-64.62-65.3s28.93-65.3,64.62-65.3,64.62,29.24,64.62,65.3-28.93,65.3-64.62,65.3Z"/>
            <path class="cls-4" d="m281.97,245.68c-31.56,0-57.15-25.86-57.15-57.75s25.59-57.75,57.15-57.75,57.15,25.86,57.15,57.75-25.59,57.75-57.15,57.75Z"/>
            <path class="cls-6" d="m281.97,231.2c-23.65,0-42.83-19.37-42.83-43.28s19.17-43.28,42.83-43.28,42.82,19.37,42.82,43.28-19.17,43.28-42.82,43.28Z"/>
            <path class="cls-10" d="m311.09,221.4c-12.52,0-22.67-10.25-22.67-22.9s10.15-22.9,22.67-22.9,22.66,10.25,22.66,22.9-10.15,22.9-22.66,22.9Z"/>
          </g>
          <g>
            <path class="cls-5" d="m115.4,248.54c-35.69,0-64.62-29.24-64.62-65.3s28.93-65.3,64.62-65.3,64.62,29.24,64.62,65.3-28.93,65.3-64.62,65.3Z"/>
            <path class="cls-4" d="m115.4,240.99c-31.56,0-57.15-25.86-57.15-57.75s25.59-57.75,57.15-57.75,57.15,25.86,57.15,57.75-25.59,57.75-57.15,57.75Z"/>
            <path class="cls-6" d="m115.4,226.52c-23.65,0-42.83-19.38-42.83-43.28s19.17-43.27,42.83-43.27,42.83,19.38,42.83,43.27-19.17,43.28-42.83,43.28Z"/>
            <path class="cls-10" d="m144.53,216.71c-12.52,0-22.67-10.25-22.67-22.9s10.15-22.9,22.67-22.9,22.67,10.25,22.67,22.9-10.15,22.9-22.67,22.9Z"/>
          </g>
          <path class="cls-2" d="m111.34,47.86c6.39-1.46,12.92,1.7,15.75,7.62,5.01,10.5,10.93,26.49,4.35,33.07-10.19,10.19-53.48,11.37-71.51,29.39-18.03,18.03-30.06-14.48-21.63-36.34,6.46-16.74,52.06-28.95,73.04-33.74Z"/>
          <path class="cls-7" d="m105.35,38.29c6.39-1.46,12.92,1.7,15.75,7.62,5.01,10.5,10.93,26.49,4.35,33.07-10.19,10.19-53.48,11.37-71.51,29.39-18.03,18.03-30.06-14.48-21.63-36.34,6.46-16.74,52.06-28.95,73.04-33.74Z"/>
          <g>
            <path class="cls-2" d="m281.71,55.84c-6.39-1.46-12.92,1.7-15.75,7.62-5.01,10.5-10.93,26.49-4.35,33.07,10.19,10.19,53.48,11.37,71.51,29.39,18.03,18.03,30.06-14.48,21.63-36.34-6.46-16.74-52.06-28.95-73.04-33.74Z"/>
            <path class="cls-7" d="m287.7,46.28c-6.39-1.46-12.92,1.7-15.75,7.62-5.01,10.5-10.93,26.49-4.35,33.07,10.19,10.19,53.48,11.37,71.51,29.39,18.03,18.03,30.06-14.48,21.63-36.34-6.46-16.74-52.06-28.95-73.04-33.74Z"/>
          </g>
          <path class="cls-9" d="m408.24,237.84c-5,18.15-13.07,35.65-21.34,48.13l-5.47,22.06-16.27-3.84c-11.5-3.35-15.99-42.48-8.87-78.61,7.56-35.89,29.26-69.71,43.27-67.15l17.92,4.23-5.26,21.23c2.04,15.27.92,35.23-3.98,53.95Z"/>
          <path class="cls-7" d="m424.51,241.68c9.29-35.48,5-75.44-8.68-79.41-14.01-2.56-35.71,31.26-43.27,67.15-7.12,36.13-2.63,75.26,8.87,78.61,11.78,2.15,33.29-30.85,43.08-66.35Z"/>
          <path class="cls-2" d="m394.48,286.52c-4.31,6.28-14.04,3.98-15.09-3.56-1.78-12.78-1.89-31.46,2.12-51.77,4.84-22.98,14.56-41.1,22.44-51.17,4.33-5.52,13.22-3.42,14.61,3.46,2.53,12.53,3.11,33.11-2.86,55.9-5.48,19.89-13.93,36.53-21.22,47.15Z"/>
          <path class="cls-7" d="m396.36,265.01c-2.23,4.56-9.08,2.94-9.03-2.14.08-8.25.85-18.47,3.11-29.94,2.96-14.06,7.63-25.27,11.87-33.36,2.27-4.32,8.85-2.76,8.94,2.12.17,9.17-.69,21.36-4.35,35.37-3.07,11.15-6.93,20.57-10.53,27.95Z"/>
          <path class="cls-2" d="m265.2,291.7c10.1,2.23-16,47.93-72.93,48.12-56.93-.19-83.03-45.89-72.93-48.12,8.34-3.39,37.09,20.44,72.93,19.12,35.84,1.32,64.59-22.51,72.93-19.12Z"/>
          <path class="cls-8" d="m265.2,291.7c-.65-.26-1.42-.36-2.32-.32-1.18,11.68-27.24,43.88-75.01,44.04-27.81-.09-48.25-11.04-60.73-22.48,11.75,12.85,33.76,26.78,65.13,26.88,56.93-.19,83.03-45.89,72.93-48.12Z"/>
        </g>
      </g>
    </g>
  </g>
</svg>